<?xml version="1.0" encoding="UTF-8"?>
<svg width="11px" height="22px" viewBox="0 0 11 22" version="1.1" xmlns="http://www.w3.org/2000/svg" xmlns:xlink="http://www.w3.org/1999/xlink">
    <!-- Generator: Sketch 56.2 (81672) - https://sketch.com -->
    <title>Combined Shape</title>
    <desc>Created with Sketch.</desc>
    <defs>
        <path d="M22.250006,47.2569506 C22.1123077,47.2569506 22,47.1415119 22,46.9999746 C22,46.8584374 22.1123077,46.7429986 22.250006,46.7429986 L24.1006258,46.7429986 C24.2383241,46.7429986 24.3506318,46.8584374 24.3506318,46.9999746 C24.3506318,47.1415119 24.2383241,47.2569506 24.1006258,47.2569506 L22.250006,47.2569506 Z M42.9272557,46.8182926 L42.9272457,46.8183286 C42.9506838,46.8424201 42.9682615,46.8705281 42.980957,46.9016453 C43.0063477,46.9648846 43.0063477,47.0351521 42.980957,47.0983913 C42.9682617,47.1295111 42.9506838,47.1576165 42.9272457,47.181708 L38.3128842,51.9247137 C38.2640555,51.9749048 38.1996015,52 38.1361225,52 C38.0726434,52 38.0081894,51.9749037 37.9593607,51.9247137 C37.8617008,51.8243132 37.8617008,51.661704 37.9593607,51.561324 L42.1469619,47.2569763 L26.9845955,47.2569763 C26.8468971,47.2569763 26.7345894,47.1415376 26.7345894,47 C26.7345894,46.8584631 26.8468971,46.7430243 26.9845955,46.7430243 L42.1469619,46.7430243 L37.9593607,42.4386766 C37.8617008,42.3382761 37.8617008,42.1756669 37.9593607,42.0752869 C38.057038,41.9749044 38.2152369,41.9749044 38.3128942,42.0752869 L42.9272557,46.8182926 Z" id="path-1"></path>
    </defs>
    <g id="Login-page" stroke="none" stroke-width="1" fill="none" fill-rule="evenodd">
        <g id="landing-page-equipment" transform="translate(-374.000000, -481.000000)">
            <g id="Group-9" transform="translate(-41.000000, -72.000000)">
                <g id="Group-13" transform="translate(388.000000, 517.000000)">
                    <mask id="mask-2" fill="white">
                        <use xlink:href="#path-1"></use>
                    </mask>
                    <use id="Combined-Shape" stroke="#03B8A8" fill="#000000" fill-rule="nonzero" transform="translate(32.500000, 47.000000) rotate(90.000000) translate(-32.500000, -47.000000) " xlink:href="#path-1"></use>
                </g>
            </g>
        </g>
    </g>
</svg>