<svg xmlns="http://www.w3.org/2000/svg" width="12" height="11" viewBox="0 0 12 11">
    <g fill="#7B7B7B" fill-rule="nonzero">
        <path d="M5.23 2.322a.378.378 0 0 0-.377.378v3.04a.35.35 0 0 0 .156.3l1.734 1.304a.356.356 0 0 0 .222.078.35.35 0 0 0 .3-.156.379.379 0 0 0-.078-.535L5.609 5.557V2.7a.379.379 0 0 0-.378-.378z"/>
        <path d="M5.478 10.865c1.683 0 3.235-.769 4.265-2.1a.389.389 0 0 0-.065-.535.389.389 0 0 0-.535.065 4.602 4.602 0 0 1-3.665 1.813 4.631 4.631 0 0 1 0-9.26c2.348 0 4.291 1.76 4.591 4.03l-.547-.535a.386.386 0 0 0-.535 0 .386.386 0 0 0 0 .535L10.109 6c.078.079.17.105.274.105.104 0 .195-.04.274-.105l1.122-1.122a.386.386 0 0 0 0-.535.386.386 0 0 0-.535 0l-.417.418C10.46 2.126 8.204.09 5.478.09A5.389 5.389 0 0 0 .091 5.478a5.389 5.389 0 0 0 5.387 5.387z"/>
    </g>
</svg>
