<?xml version="1.0" encoding="UTF-8"?>
<svg width="74px" height="72px" viewBox="0 0 74 72" version="1.1" xmlns="http://www.w3.org/2000/svg" xmlns:xlink="http://www.w3.org/1999/xlink">
    <!-- Generator: Sketch 57.1 (83088) - https://sketch.com -->
    <title>np_hello_1356002_000000</title>
    <desc>Created with Sketch.</desc>
    <g id="Demand:-Search-Page" stroke="none" stroke-width="1" fill="none" fill-rule="evenodd">
        <g id="reposition.it-search-default-origin-0.2" transform="translate(-752.000000, -343.000000)" fill="#03B8A8" fill-rule="nonzero">
            <g id="np_hello_1356002_000000" transform="translate(752.000000, 343.000000)">
                <path d="M65.4920336,45.457 C65.495906,47.5625 64.65997,49.582 63.1717,51.0664 C62.83186,51.39843 62.37873,51.58202 61.9061,51.5859559 C61.18344,51.589836 60.5311,51.15234 60.2538,50.48823 C59.97646,49.82026 60.13271,49.05073 60.64442,48.53903 C62.33972,46.83203 62.33972,44.07813 60.64442,42.37103 C59.9452,41.67572 59.9452,40.54293 60.64442,39.84373 C61.33973,39.14842 62.47252,39.14842 63.17172,39.84373 C64.66002,41.33203 65.49592,43.35153 65.4920336,45.45703 L65.4920336,45.457 Z" id="Path"></path>
                <polygon id="Path" points="30.965 29.703 24.7853 23.5233 24.875144 23.601424"></polygon>
                <path d="M67.039,29.828 C66.70697,29.43738 66.35541,29.06238 65.9921,28.7108 L54.8551,17.5778 C52.8199,15.5426 49.6832,15.1012 47.1598,16.4919 L38.7379,8.0622 L38.741807,8.0622 C36.007407,5.3474 31.593407,5.3474 28.859007,8.0622 C27.999627,8.91376 27.382407,9.9802 27.069907,11.1481 C24.206607,8.7379 19.952707,9.0114 17.425407,11.76529 C14.898107,14.52309 14.991807,18.78479 17.640247,21.42939 L18.042587,21.83173 L18.042587,21.827824 C15.655887,22.503604 13.808187,24.390324 13.183187,26.788724 C12.558187,29.187124 13.245687,31.734024 14.995687,33.491824 L16.210487,34.706624 C15.054287,35.019124 14.003487,35.636314 13.163587,36.487824 C10.452687,39.218324 10.452687,43.624524 13.163587,46.355024 L30.788587,63.980024 C35.487787,68.706624 41.866587,71.374524 48.530587,71.4020805 L48.667307,71.4020805 C55.245407,71.425361 61.562307,68.816024 66.206307,64.155824 C70.698507,59.624624 73.288307,53.542824 73.444607,47.159824 C73.600857,40.777024 71.307907,34.573824 67.038407,29.827824 L67.039,29.828 Z M63.6406,61.601 C59.6445,65.6283 54.1836,67.8627 48.5116,67.8002 C42.7889,67.784575 37.3086,65.4955 33.2776,61.4369 L15.6526,43.8119 C15.01588,43.17128 14.66041,42.3041 14.6718491,41.4017 C14.664317,40.49545 15.01588,39.6244 15.6526,38.9837 C17.0081,37.7103 19.1214,37.7103 20.4807,38.9837 L32.8087,51.2927 C33.51182,51.92161 34.586,51.89426 35.2579,51.226293 C35.92587,50.554423 35.95321,49.480193 35.324307,48.777093 L23.043307,36.488093 L17.519907,30.964693 L17.523814,30.964693 C16.191814,29.632693 16.191814,27.472493 17.523814,26.136593 C18.875414,24.851393 20.996514,24.851393 22.351914,26.136593 L37.476914,41.265593 C38.176134,41.960903 39.305014,41.957003 40.000314,41.261687 C40.695624,40.562467 40.691724,39.433587 39.992502,38.738287 L20.156502,18.902287 C18.836202,17.562487 18.836202,15.413987 20.156502,14.074187 C21.515902,12.792987 23.637002,12.792987 24.992402,14.074187 L42.226402,31.308187 C42.925622,32.003497 44.054502,32.003497 44.753702,31.308187 C45.449012,30.608967 45.449012,29.480087 44.753702,28.780887 L35.941202,19.968387 L31.386502,15.417587 C30.054502,14.081687 30.054502,11.921487 31.386502,10.589487 C32.738102,9.304287 34.863102,9.304287 36.214602,10.589487 L44.636502,19.019187 C43.245902,21.538687 43.687282,24.675387 45.722402,26.714487 L50.343502,31.335587 C47.437302,35.050387 47.527102,40.296487 50.558342,43.909587 C50.593498,43.952556 50.63256,43.991619 50.675532,44.026777 C51.320062,44.686937 52.366932,44.737717 53.073932,44.143967 C53.441122,43.839277 53.667682,43.405687 53.710652,42.933067 C53.75362,42.460407 53.605182,41.991657 53.300492,41.628367 C51.144292,39.058067 51.323892,35.265067 53.710652,32.913567 C53.773152,32.847161 53.835652,32.784657 53.905962,32.726067 C54.320022,32.413567 54.577842,31.937007 54.612992,31.421367 C54.648149,30.905747 54.456742,30.401867 54.093462,30.034667 L48.218462,24.159667 C47.409872,22.991667 47.554402,21.409667 48.558302,20.409667 C49.566102,19.405767 51.144202,19.265167 52.312202,20.077637 L63.414202,31.229637 C63.718892,31.534327 64.000142,31.835107 64.297012,32.210107 L64.297012,32.2062 C67.953212,36.2687 69.925912,41.5695 69.800912,47.0342 C69.679822,52.499 67.476712,57.7102 63.640712,61.6002 L63.6406,61.601 Z" id="Shape"></path>
                <path d="M65.4920336,45.457 C65.495906,47.5625 64.65997,49.582 63.1717,51.0664 C62.83186,51.39843 62.37873,51.58202 61.9061,51.5859559 C61.18344,51.589836 60.5311,51.15234 60.2538,50.48823 C59.97646,49.82026 60.13271,49.05073 60.64442,48.53903 C62.33972,46.83203 62.33972,44.07813 60.64442,42.37103 C59.9452,41.67572 59.9452,40.54293 60.64442,39.84373 C61.33973,39.14842 62.47252,39.14842 63.17172,39.84373 C64.66002,41.33203 65.49592,43.35153 65.4920336,45.45703 L65.4920336,45.457 Z" id="Path"></path>
                <path d="M58.215,16.531 C57.23062,16.531 56.4338,15.73412 56.4338,14.7498 C56.429894,12.3475 54.4807,10.3982 52.0783,10.3943 C51.09002,10.3943 50.2892,9.59352 50.2892,8.6052 C50.2892,7.62082 51.08998,6.82 52.0783,6.82 C56.4533,6.823907 60.0041,10.3708 60.008,14.7497 C60.008,15.22236 59.8205,15.67939 59.48066,16.0153 C59.14472,16.34733 58.6916,16.53483 58.21506,16.531 L58.215,16.531 Z" id="Path"></path>
                <path d="M64.324,16.1601296 C63.33962,16.1601296 62.5428,15.36312 62.5428,14.3788 C62.538893,8.8007 58.0155,4.2808 52.4378,4.2808 C51.45342,4.2808 50.6526,3.48392 50.6526,2.4956 C50.6526,1.50732 51.45338,0.7104 52.4378,0.7104 C60.0081,0.7104 66.1488,6.8471 66.1488,14.4174 C66.137081,14.89006 65.93786,15.33928 65.59802,15.6674 C65.25427,15.99162 64.79724,16.17131 64.32462,16.15959 L64.324,16.1601296 Z" id="Path"></path>
                <path d="M14.703,60.047 C10.3241,60.039187 6.7772,56.4923 6.7694,52.1134 C6.7694,51.12902 7.57018,50.3282 8.5585,50.3282 C9.54678,50.3282 10.3437,51.12898 10.3437,52.1134 C10.351512,54.5196 12.2968,56.465 14.7031,56.4728 C15.68748,56.4728 16.4883,57.27358 16.4883,58.258 C16.4883,59.24628 15.68752,60.0471 14.7031,60.0471 L14.703,60.047 Z" id="Path"></path>
                <path d="M14.332,66.1561 C6.7578,66.1561 0.621,60.0193 0.621,52.449 C0.621,51.46072 1.42178,50.6599 2.4101,50.6599 C3.39448,50.6599 4.1953,51.46068 4.1953,52.449 C4.187488,55.1365 5.2539,57.7185 7.1562,59.6209 C9.0585,61.5233 11.6406,62.5897 14.332,62.5818 C15.31638,62.5818 16.1172,63.38258 16.1172,64.367 C16.1172,65.35528 15.31642,66.1561 14.332,66.1561 L14.332,66.1561 Z" id="Path"></path>
            </g>
        </g>
    </g>
</svg>