<svg xmlns="http://www.w3.org/2000/svg" width="9" height="50" viewBox="0 0 9 50">
    <g fill="none" fill-rule="evenodd" transform="translate(.643 1)">
        <path fill="#006960" fill-rule="nonzero" d="M3.998 37.055A4.006 4.006 0 0 0 0 41.053c0 .253.026.5.072.74v.001a.655.655 0 0 0 .009.065c.513 2.475 2.76 5.31 3.508 6.2a.525.525 0 0 0 .076.075h.001a.559.559 0 0 0 .089.058.54.54 0 0 0 .258.057.535.535 0 0 0 .378-.173c.005-.006.01-.01.014-.017.749-.89 2.997-3.725 3.51-6.2a.619.619 0 0 0 .01-.07c.045-.24.07-.485.07-.736a4.006 4.006 0 0 0-3.997-3.998zm0 2.35a1.614 1.614 0 1 1 0 3.228 1.614 1.614 0 0 1 0-3.227z"/>
        <circle cx="3.998" cy="3" r="3" stroke="#006960"/>
        <circle cx="3.998" cy="13" r="2" fill="#D8D8D8" fill-opacity=".446"/>
        <circle cx="3.998" cy="22" r="2" fill="#D8D8D8" fill-opacity=".446"/>
        <circle cx="3.998" cy="31" r="2" fill="#D8D8D8" fill-opacity=".446"/>
    </g>
</svg>
