<?xml version="1.0" encoding="UTF-8"?>
<svg width="235px" height="29px" viewBox="0 0 235 29" version="1.1" xmlns="http://www.w3.org/2000/svg" xmlns:xlink="http://www.w3.org/1999/xlink">
    <!-- Generator: Sketch 56.2 (81672) - https://sketch.com -->
    <title>Logo/Repositionit/dark</title>
    <desc>Created with Sketch.</desc>
    <g id="Login-page" stroke="none" stroke-width="1" fill="none" fill-rule="evenodd">
        <g id="landing-page-equipment" transform="translate(-262.000000, -280.000000)">
            <g id="Logo/Repositionit/dark" transform="translate(257.000000, 275.000000)">
                <g id="name-logo-light-blue-copy-2" transform="translate(4.979675, 5.000000)">
                    <g id="Group" transform="translate(209.709261, 5.043478)" fill="#03B8A8" fill-rule="nonzero">
                        <polygon id="Path" points="3.07859839 21.9819524 0.121523621 21.9819524 0.121523621 0.2914274 3.07859839 0.2914274"></polygon>
                        <polygon id="Path" points="17.2158462 3.08080394 17.2158462 21.9819524 14.2587715 21.9819524 14.2587715 3.08080394 6.64329126 3.08080394 6.64329126 0.2914274 24.8313265 0.2914274 24.8313265 3.08080394"></polygon>
                    </g>
                    <g id="Group" fill="#006960" fill-rule="nonzero">
                        <polygon id="Path" points="35.490405 14.5408451 46.3573065 14.5408451 46.3573065 17.2774648 35.490405 17.2774648 35.490405 23.6901408 47.6190067 23.6901408 47.6190067 26.4267606 32.5600046 26.4267606 32.5600046 5.14647887 47.6190067 5.14647887 47.6190067 7.88309859 35.490405 7.88309859"></polygon>
                        <path d="M59.7069084,5.18732394 C62.1896088,5.18732394 64.183909,5.84084507 65.6898092,7.14788732 C67.2364095,8.45492958 67.9690096,10.2112676 67.9690096,12.3760563 C67.9690096,14.6225352 67.1957095,16.4605634 65.6084092,17.8084507 C64.021109,19.156338 61.9454087,19.8507042 59.3406084,19.8507042 L54.9857077,19.8507042 L54.9857077,26.4676056 L52.0146073,26.4676056 L52.0146073,5.18732394 L59.7069084,5.18732394 Z M59.6255084,17.1140845 C62.8815089,17.1140845 65.0386092,15.2352113 65.0386092,12.3760563 C65.0386092,9.72112676 62.8408088,7.92394366 59.6255084,7.92394366 L55.0264077,7.92394366 L55.0264077,17.1140845 L59.6255084,17.1140845 Z" id="Shape"></path>
                        <path d="M81.9698115,4.73802817 C85.022312,4.73802817 87.6271123,5.84084507 89.7842126,8.0056338 C91.9413129,10.1704225 93.0402131,12.784507 93.0402131,15.8478873 C93.0402131,18.9112676 91.9413129,21.5661972 89.7842126,23.6901408 C87.6271123,25.8549296 85.022312,26.9169014 81.9698115,26.9169014 C78.9173111,26.9169014 76.2718107,25.8549296 74.1554104,23.6901408 C71.9983101,21.5253521 70.94011,18.9112676 70.94011,15.8478873 C70.94011,12.784507 71.9983101,10.1704225 74.1554104,8.0056338 C76.2718107,5.84084507 78.8766111,4.73802817 81.9698115,4.73802817 Z M87.6271123,21.7295775 C89.1737126,20.0957746 89.9470127,18.1352113 89.9470127,15.8478873 C89.9470127,13.5605634 89.1330125,11.6 87.6271123,10.0070423 C86.0805121,8.37323944 84.2083119,7.55633803 81.9291115,7.55633803 C79.6499112,7.55633803 77.7370109,8.37323944 76.1904107,10.0070423 C74.6438105,11.6 73.8705104,13.5605634 73.8705104,15.8478873 C73.8705104,18.1352113 74.6031105,20.0957746 76.1904107,21.7295775 C77.7370109,23.3225352 79.6499112,24.1394366 81.9291115,24.1394366 C84.2083119,24.1394366 86.1212121,23.3225352 87.6271123,21.7295775 Z" id="Shape"></path>
                        <path d="M110.541216,6.33098592 C112.128516,7.39295775 113.064616,9.02676056 113.308816,11.2323944 L110.337716,11.2323944 C109.890015,8.61830986 108.139915,7.27042254 105.046715,7.27042254 C102.157014,7.27042254 100.284814,8.7 100.284814,10.8239437 C100.284814,12.4985915 101.587214,13.5605634 104.192015,14.0915493 L107.163115,14.7042254 C111.192416,15.5211268 113.268116,17.2366197 113.268116,20.3816901 C113.268116,22.3422535 112.535516,23.9352113 111.070316,25.1605634 C109.605115,26.3450704 107.651515,26.9577465 105.250215,26.9577465 C100.081314,26.9577465 96.6625136,24.2211268 96.2555135,19.6464789 L99.226614,19.6464789 C99.674314,22.628169 101.872114,24.3028169 105.413015,24.3028169 C108.424815,24.3028169 110.256316,22.9140845 110.256316,20.7901408 C110.256316,19.115493 109.076015,18.0943662 106.715415,17.6450704 L103.133815,16.9507042 C99.185914,16.215493 97.1916137,14.2549296 97.1916137,11.1098592 C97.1916137,9.19014085 97.9242138,7.67887324 99.308014,6.4943662 C100.691814,5.35070423 102.564014,4.73802817 104.924615,4.73802817 C107.081715,4.6971831 108.953915,5.26901408 110.541216,6.33098592 Z" id="Path"></path>
                        <polygon id="Path" points="120.716217 26.4676056 117.745117 26.4676056 117.745117 5.18732394 120.716217 5.18732394"></polygon>
                        <polygon id="Path" points="134.879819 7.92394366 134.879819 26.4676056 131.908719 26.4676056 131.908719 7.92394366 124.257117 7.92394366 124.257117 5.18732394 142.53142 5.18732394 142.53142 7.92394366"></polygon>
                        <polygon id="Path" points="148.717821 26.4676056 145.746721 26.4676056 145.746721 5.18732394 148.717821 5.18732394"></polygon>
                        <path d="M164.346623,4.73802817 C167.399124,4.73802817 170.003924,5.84084507 172.161024,8.0056338 C174.318125,10.1704225 175.417025,12.784507 175.417025,15.8478873 C175.417025,18.9112676 174.318125,21.5661972 172.161024,23.6901408 C170.003924,25.8549296 167.399124,26.9169014 164.346623,26.9169014 C161.294123,26.9169014 158.648622,25.8549296 156.532222,23.6901408 C154.375122,21.5253521 153.316922,18.9112676 153.316922,15.8478873 C153.316922,12.784507 154.375122,10.1704225 156.532222,8.0056338 C158.689322,5.84084507 161.294123,4.73802817 164.346623,4.73802817 Z M170.044624,21.7295775 C171.591224,20.0957746 172.364524,18.1352113 172.364524,15.8478873 C172.364524,13.5605634 171.550524,11.6 170.044624,10.0070423 C168.498024,8.37323944 166.625823,7.55633803 164.346623,7.55633803 C162.067423,7.55633803 160.154523,8.37323944 158.607922,10.0070423 C157.061322,11.6 156.288022,13.5605634 156.288022,15.8478873 C156.288022,18.1352113 157.020622,20.0957746 158.607922,21.7295775 C160.154523,23.3225352 162.067423,24.1394366 164.346623,24.1394366 C166.585123,24.1394366 168.498024,23.3225352 170.044624,21.7295775 Z" id="Shape"></path>
                        <polygon id="Path" points="198.371828 26.4676056 195.929828 26.4676056 182.946526 10.7014085 182.946526 26.4676056 179.975425 26.4676056 179.975425 5.18732394 182.295326 5.18732394 195.319327 21.2394366 195.319327 5.18732394 198.331128 5.18732394 198.331128 26.4676056"></polygon>
                        <path d="M202.197628,25.1197183 C202.197628,24.0985915 203.052329,23.3225352 204.029129,23.3225352 C205.046629,23.3225352 205.901329,24.0985915 205.901329,25.1197183 C205.901329,26.1408451 205.046629,26.9169014 204.029129,26.9169014 C203.052329,26.9577465 202.197628,26.1408451 202.197628,25.1197183 Z" id="Path"></path>
                        <path d="M0.162800023,0.0816901408 L0.162800023,28.9183099 L2.93040041,28.9183099 L2.93040041,2.85915493 L23.0769032,2.85915493 L23.0769032,25.6915493 L13.4717019,17.8084507 L15.0590021,17.8084507 C18.4778026,17.8084507 21.245403,15.0309859 21.245403,11.6 C21.245403,8.16901408 18.4778026,5.3915493 15.0590021,5.3915493 L5.57590078,5.3915493 L5.57590078,8.16901408 L15.0590021,8.16901408 C16.9312024,8.16901408 18.4778026,9.72112676 18.4778026,11.6 C18.4778026,13.4788732 16.9312024,15.0309859 15.0590021,15.0309859 L8.34350117,15.0309859 L8.34350117,17.1957746 L22.6292032,28.9183099 L22.6699032,28.9591549 L25.8445036,28.9591549 L25.8445036,0.122535211 L0.162800023,0.122535211 L0.162800023,0.0816901408 Z" id="Path"></path>
                    </g>
                </g>
            </g>
        </g>
    </g>
</svg>