<?xml version="1.0" encoding="utf-8"?>
<!-- Generator: Adobe Illustrator 22.0.1, SVG Export Plug-In . SVG Version: 6.00 Build 0)  -->
<svg fill="#ffffff" version="1.1" id="Layer_1" xmlns="http://www.w3.org/2000/svg" xmlns:xlink="http://www.w3.org/1999/xlink" x="0px" y="0px"
	 viewBox="0 0 708.7 566.9" style="enable-background:new 0 0 708.7 566.9;" xml:space="preserve">
<g>
	<g>
		<path fill="#a3f0fc" d="M588.6,312.8h-7.3v-52.1h7.3V312.8z"/>
		<path fill="#a3f0fc" d="M623.5,267.4v45.4h-7.3v-45.4h-18.8v-6.7h44.9v6.7H623.5z"/>
	</g>
	<g>
		<path d="M153.2,283.6h26.7v6.7h-26.7v15.7H183v6.7h-37v-52.1h37v6.7h-29.8V283.6z"/>
		<path d="M212.7,260.7c6.1,0,11,1.6,14.7,4.8c3.8,3.2,5.6,7.5,5.6,12.8c0,5.5-1.9,10-5.8,13.3c-3.9,3.3-9,5-15.4,5h-10.7v16.2h-7.3
			v-52.1H212.7z M212.5,289.9c8,0,13.3-4.6,13.3-11.6c0-6.5-5.4-10.9-13.3-10.9h-11.3v22.5H212.5z"/>
		<path d="M267.4,259.6c7.5,0,13.9,2.7,19.2,8c5.3,5.3,8,11.7,8,19.2s-2.7,14-8,19.2c-5.3,5.3-11.7,7.9-19.2,7.9s-14-2.6-19.2-7.9
			c-5.3-5.3-7.9-11.7-7.9-19.2s2.6-13.9,7.9-19.2C253.4,262.3,259.8,259.6,267.4,259.6z M281.3,301.2c3.8-4,5.7-8.8,5.7-14.4
			c0-5.6-2-10.4-5.7-14.3c-3.8-4-8.4-6-14-6c-5.6,0-10.3,2-14.1,6c-3.8,3.9-5.7,8.7-5.7,14.3c0,5.6,1.8,10.4,5.7,14.4
			c3.8,3.9,8.5,5.9,14.1,5.9C272.9,307.1,277.6,305.1,281.3,301.2z"/>
		<path d="M337.6,263.5c3.9,2.6,6.2,6.6,6.8,12h-7.3c-1.1-6.4-5.4-9.7-13-9.7c-7.1,0-11.7,3.5-11.7,8.7c0,4.1,3.2,6.7,9.6,8l7.3,1.5
			c9.9,2,15,6.2,15,13.9c0,4.8-1.8,8.7-5.4,11.7c-3.6,2.9-8.4,4.4-14.3,4.4c-12.7,0-21.1-6.7-22.1-17.9h7.3
			c1.1,7.3,6.5,11.4,15.2,11.4c7.4,0,11.9-3.4,11.9-8.6c0-4.1-2.9-6.6-8.7-7.7l-8.8-1.7c-9.7-1.8-14.6-6.6-14.6-14.3
			c0-4.7,1.8-8.4,5.2-11.3c3.4-2.8,8-4.3,13.8-4.3C329.1,259.5,333.7,260.9,337.6,263.5z"/>
		<path d="M362.6,312.8h-7.3v-52.1h7.3V312.8z"/>
		<path d="M397.4,267.4v45.4h-7.3v-45.4h-18.8v-6.7h44.9v6.7H397.4z"/>
		<path d="M431.4,312.8h-7.3v-52.1h7.3V312.8z"/>
		<path d="M469.8,259.6c7.5,0,13.9,2.7,19.2,8c5.3,5.3,8,11.7,8,19.2s-2.7,14-8,19.2c-5.3,5.3-11.7,7.9-19.2,7.9s-14-2.6-19.2-7.9
			c-5.3-5.3-7.9-11.7-7.9-19.2s2.6-13.9,7.9-19.2C455.9,262.3,462.3,259.6,469.8,259.6z M483.8,301.2c3.8-4,5.7-8.8,5.7-14.4
			c0-5.6-2-10.4-5.7-14.3c-3.8-4-8.4-6-14-6c-5.6,0-10.3,2-14.1,6c-3.8,3.9-5.7,8.7-5.7,14.3c0,5.6,1.8,10.4,5.7,14.4
			c3.8,3.9,8.5,5.9,14.1,5.9C475.3,307.1,480,305.1,483.8,301.2z"/>
		<path d="M553.4,312.8h-6l-31.9-38.6v38.6h-7.3v-52.1h5.7l32,39.3v-39.3h7.4V312.8z"/>
		<path d="M562.8,309.5c0-2.5,2.1-4.4,4.5-4.4c2.5,0,4.6,1.9,4.6,4.4c0,2.5-2.1,4.4-4.6,4.4C564.9,314,562.8,312,562.8,309.5z"/>
		<path d="M66.4,248.2v70.6h6.8V255h49.5v55.9l-23.6-19.3h3.9c8.4,0,15.2-6.8,15.2-15.2s-6.8-15.2-15.2-15.2H79.7v6.8H103
			c4.6,0,8.4,3.8,8.4,8.4c0,4.6-3.8,8.4-8.4,8.4H86.5v5.3l35.1,28.7l0.1,0.1h7.8v-70.6H66.4z"/>
	</g>
</g>
</svg>
