<svg xmlns="http://www.w3.org/2000/svg" width="61" height="66" viewBox="0 0 61 66">
    <g fill="#141414" fill-rule="nonzero">
        <g opacity=".086">
            <path d="M49.573 24.617A24.46 24.46 0 0 0 25.008.318 24.458 24.458 0 0 0 .658 24.83a24.456 24.456 0 0 0 24.456 24.405 24.55 24.55 0 0 0 24.46-24.618zm-2.84 0a21.616 21.616 0 0 1-21.72 21.448 21.622 21.622 0 0 1-15.229-6.387 21.597 21.597 0 0 1-6.273-15.276A21.609 21.609 0 0 1 25.114 2.841 21.723 21.723 0 0 1 40.43 9.257a21.724 21.724 0 0 1 6.304 15.36z"/>
            <path d="M63.318 56.77l-21.73-16.882a9.362 9.362 0 0 1-.918 1.99L58.3 63.105c2.727 3.278 6.316 4.245 7.961 2.156 1.648-2.088.348-5.929-2.943-8.491z"/>
        </g>
        <g opacity=".09">
            <path d="M17.798 24.92h14.47a.623.623 0 0 0 .685-.623.625.625 0 0 0-.685-.624h-14.47a.623.623 0 0 0-.685.624.625.625 0 0 0 .685.623z"/>
            <path d="M25.03 32.158c.346 0 .626-.28.626-.626v-14.47a.623.623 0 0 0-.623-.685.625.625 0 0 0-.624.685v14.47c0 .343.277.623.621.626z"/>
        </g>
    </g>
</svg>
